<?xml version="1.0" encoding="utf-8"?>
<!-- Generator: Adobe Illustrator 26.5.0, SVG Export Plug-In . SVG Version: 6.00 Build 0)  -->
<svg version="1.1" id="Layer_1" xmlns="http://www.w3.org/2000/svg" xmlns:xlink="http://www.w3.org/1999/xlink" x="0px" y="0px"
	 viewBox="0 0 698 193.3" style="enable-background:new 0 0 698 193.3;" xml:space="preserve">
<style type="text/css">
	.st0{fill:#099247;}
	.st1{fill:none;}
</style>
<g>
	<g>
		<path class="st0" d="M622.5,44.5c-20.2,0-36.3,16.4-36.3,36.3c0,20.5,16.8,36.7,36.3,36.4c19.7,0.3,36.3-15.9,36.4-36.1
			C659,61.1,643,44.5,622.5,44.5z M599.5,55.9c3.6-3.4,7.8-5.7,12.4-7.3c0.3-0.1,0.6-0.2,0.9-0.1c0.2,0,0.3,0.3,0.5,0.4
			c-0.2,0.3-0.3,0.5-0.5,0.7c-2.3,2.9-4.1,6-5.4,9.4c-0.5,1.2-0.7,1.3-1.9,0.9c-1.9-0.6-3.8-1.2-5.6-2
			C598.5,57.3,598.4,56.9,599.5,55.9z M621.3,78.3c0,1.2-0.1,1.4-1.4,1.4c-4.1,0-8.3,0-12.4,0c-1.2,0-1.3-0.2-1.3-1.4
			c-0.1-3.2,0.4-6.4,1-9.6c0.3-1.4,0.6-2.7,0.9-4.1c0.3-1.3,0.6-1.4,1.9-1.2c2.6,0.3,5.2,0.6,7.8,0.9c0.7,0.1,1.3,0.2,2,0.3
			c1.5,0.2,1.5,0.2,1.6,1.8c0,1.9,0,3.9,0,5.8C621.3,74.1,621.4,76.2,621.3,78.3z M588.7,78c0.4-6.4,2.7-12,6.4-17.2
			c1.4-1.9,1.3-1.8,3.5-1c2.1,0.8,4.2,1.5,6.3,2.3c1.2,0.4,1.4,0.7,1,1.9c-1.1,3.9-1.5,7.9-2,11.8c-0.1,0.8,0,1.7-0.1,2.6
			c-0.1,1-0.3,1.3-1.3,1.3c-2.1,0-4.3,0-6.4,0c-2,0-4,0-6,0C588.7,79.6,588.6,79.5,588.7,78z M595.6,101.7
			c-3.9-5.1-6.3-10.8-6.9-17.2c-0.2-2.4-0.2-2.4,2.1-2.4c3.7,0,7.4,0,11.1,0c1.6,0,1.8,0.2,1.8,1.8c0,0.5,0,1.1,0.1,1.6
			c0.1,1.2,1.1,1.8,2.1,1.2c0.2-0.1,0.3-0.5,0.3-0.8c0-0.7,0-1.5,0-2.2c0-1.6,0.1-1.7,1.8-1.7c2,0,3.9,0,5.8,0c2,0,3.9,0,5.8,0
			c1.5,0,1.6,0.1,1.6,1.7c0,4,0,8,0,12c0,1.4-0.2,1.6-1.6,1.6c-3.3,0-6.6,0.5-9.9,1.1c-1,0.2-1.3,0-1.6-1c-0.2-0.5-0.3-0.9-0.4-1.4
			c-0.3-1-0.3-1-1.3-0.8c-1.1,0.2-1.1,0.2-0.9,1.3c0.1,0.4,0.2,0.7,0.3,1.1c0.3,1.4,0.2,1.6-1.2,2.1c-2.3,0.8-4.5,1.7-6.8,2.5
			C596.6,102.8,596.5,102.8,595.6,101.7z M612.3,113.4c-2.7-0.8-5.2-2-7.6-3.5c-1.9-1.2-3.6-2.7-5.3-4.1c-0.9-0.8-0.9-1.2,0.3-1.7
			c2-0.8,4-1.5,6-2.2c0.2-0.1,0.4-0.1,0.3,0c1-0.1,1.3,0.3,1.6,0.9c1,2.6,2.2,5.1,3.8,7.4c0.5,0.7,1.2,1.4,1.7,2.2
			c0.2,0.2,0.1,0.6,0.1,1C612.8,113.3,612.5,113.4,612.3,113.4z M621.3,113.5c0,1.2-0.3,1.4-1.4,1c-2.2-0.8-4-2.2-5.5-4.1
			c-1.9-2.4-3.4-5-4.5-7.9c-0.5-1.3-0.3-1.6,1-1.8c2.8-0.4,5.6-0.8,8.5-1c1.7-0.2,1.9,0.1,1.9,1.8c0,2,0,4,0,6
			C621.3,109.5,621.4,111.5,621.3,113.5z M621.3,54.6c0,2,0,4,0,6c0,1.3-0.2,1.5-1.3,1.5c-3.1,0-6.2-0.3-9.2-1
			c-1.3-0.3-1.4-0.6-0.9-1.8c1.2-3.1,2.8-5.9,5-8.4c1.3-1.4,2.8-2.6,4.5-3.3c1.6-0.7,2-0.4,2,1.2C621.4,50.7,621.3,52.6,621.3,54.6z
			 M649.2,59.7c0.9,1.2,1.8,2.5,2.6,3.8c2.6,4.4,4.3,9.1,4.6,14.2c0,0.4,0.1,0.8,0,1.1c-0.1,0.3-0.5,0.6-0.8,0.8
			c-0.2,0.1-0.6,0-0.9,0c-3.9,0-7.8,0-11.7,0c-1.6,0-1.6,0-1.7-1.6c0-1-0.4-0.8-1.1-0.7c-0.8,0.1-1.5,0.1-1.3,1.2
			c0.1,0.9-0.4,1.2-1.2,1.1c-1.9,0-3.9,0-5.8,0c-2.2,0-4.4,0-6.6,0c-1.3,0-1.4-0.1-1.4-1.5c0-2.1,0-4.1,0-6.2c0-2.1,0-4.1,0-6.2
			c0-1.2,0.1-1.1,1.2-1.3c3.4-0.4,6.9-0.8,10.3-1.2c0.6-0.1,1.2-0.1,1.4,0.5c0.3,1,1.1,0.8,1.8,0.7c0.5,0,0.8-0.3,0.7-0.8
			c-0.3-1,0.2-1.3,1-1.6c2.5-0.9,5-1.8,7.5-2.8C648.3,59.1,648.8,59.2,649.2,59.7z M632.5,48.4c1,0.3,2,0.7,2.9,1
			c3.6,1.5,6.9,3.6,9.8,6.1c0.3,0.2,0.6,0.5,0.8,0.8c0.3,0.5,0.3,1-0.2,1.2c-2.3,0.9-4.6,1.8-7.1,2.7c-0.4-0.4-0.8-0.8-1-1.2
			c-1-1.9-1.8-3.8-2.8-5.7c-0.6-1.2-1.5-2.2-2.2-3.3c-0.2-0.3-0.5-0.7-0.7-1.1C631.7,48.6,632,48.2,632.5,48.4z M623.8,48.5
			c0-1.4,0.4-1.7,1.7-1.1c1.1,0.5,2.2,1.1,3.1,1.9c3.2,2.7,5.1,6.2,6.7,10c0.5,1.2,0.3,1.4-0.8,1.7c-0.8,0.2-1.7,0.4-2.5,0.5
			c-2.2,0.2-4.5,0.4-6.7,0.6c-1.3,0.1-1.4-0.1-1.4-1.5c0-2,0-4,0-6C623.8,52.5,623.7,50.5,623.8,48.5z M654.7,92
			c-1.2,3.6-3,6.8-5.3,9.7c-0.8,1.1-0.9,1-2.1,0.5c-2-0.8-4.1-1.5-6.1-2.3c-0.6-0.3-0.9-0.1-0.9,0.6c0,0.2-0.1,0.5-0.2,0.7
			c-0.2,0.5,0,0.8,0.5,0.9c1.2,0.4,2.3,0.8,3.4,1.2c0.6,0.2,1.2,0.5,1.8,0.9c0.5,0.3,0.6,0.8,0.2,1.2c-0.4,0.5-0.9,1-1.4,1.4
			c-3.3,2.7-6.9,4.8-10.8,6.2c-0.3,0.1-0.6,0.2-0.9,0.3c-0.3,0-0.7,0-0.8-0.1c-0.1-0.2-0.1-0.6,0-0.8c0.3-0.5,0.7-1,1.1-1.4
			c1.6-2.1,2.9-4.4,3.8-6.8c0.4-1,0.4-1-0.7-1.2c-1.2-0.2-1.2-0.3-1.7,0.8c-1.1,2.5-2.4,4.9-4.3,7c-1.4,1.6-3,2.8-5,3.6
			c-1.2,0.5-1.6,0.2-1.6-1c0-4.1,0-8.2,0-12.2c0-1.3,0.3-1.6,1.7-1.5c2.8,0.2,5.5,0.5,8.3,0.8c0-0.1,0-0.2,0.1-0.3
			c0-0.6,0.3-1.5,0.1-1.7c-0.5-0.4-1.3-0.5-2-0.6c-1.7-0.2-3.5-0.3-5.2-0.5c-0.5,0-1,0-1.5,0c-1.2-0.1-1.4-0.3-1.4-1.4c0-2,0-4,0-6
			c0-2.2,0-4.4,0-6.6c0-1.1,0.1-1.3,1.3-1.3c4.1,0,8.3,0,12.4,0c1.3,0,1.5,0.2,1.4,1.6c-0.2,3-0.6,6-0.9,9c-0.1,1-0.4,2-0.6,3
			c-0.1,0.5,0,0.8,0.5,1c1.3,0.4,1.4,0.8,1.8-0.9c0.6-3,1.2-6.1,1.3-9.2c0-1.1,0.2-2.2,0.3-3.3c0.1-1.1,0.3-1.3,1.3-1.3
			c1.6,0,3.2,0,4.7,0c2.6,0,5.1,0,7.7,0c1.2,0,1.3,0.1,1.3,1.4C656.4,86.4,655.6,89.2,654.7,92z"/>
		<path class="st1" d="M655.1,82.1c-2.6,0-5.1,0-7.7,0c-1.6,0-3.2,0-4.7,0c-1.1,0-1.2,0.2-1.3,1.3c-0.1,1.1-0.2,2.2-0.3,3.3
			c-0.1,3.1-0.7,6.1-1.3,9.2c-0.4,1.7-0.4,1.3-1.8,0.9c-0.6-0.2-0.6-0.5-0.5-1c0.2-1,0.5-2,0.6-3c0.3-3,0.7-6,0.9-9
			c0.1-1.3-0.1-1.5-1.4-1.6c-4.1,0-8.3,0-12.4,0c-1.1,0-1.2,0.2-1.3,1.3c0,2.2,0,4.4,0,6.6c0,2,0,4,0,6c0,1.2,0.2,1.4,1.4,1.4
			c0.5,0,1,0,1.5,0c1.7,0.1,3.5,0.3,5.2,0.5c0.7,0.1,1.5,0.2,2,0.6c0.3,0.2,0,1.1-0.1,1.7c0,0.1,0,0.2-0.1,0.3
			c-2.8-0.3-5.5-0.6-8.3-0.8c-1.4-0.1-1.7,0.2-1.7,1.5c0,4.1,0,8.2,0,12.2c0,1.2,0.4,1.5,1.6,1c2-0.8,3.6-2,5-3.6
			c1.8-2.1,3.1-4.5,4.3-7c0.5-1.1,0.5-1.1,1.7-0.8c1,0.2,1.1,0.2,0.7,1.2c-1,2.4-2.2,4.7-3.8,6.8c-0.4,0.5-0.8,0.9-1.1,1.4
			c-0.1,0.2-0.2,0.7,0,0.8c0.1,0.1,0.5,0.1,0.8,0.1c0.3,0,0.6-0.2,0.9-0.3c4-1.4,7.6-3.5,10.8-6.2c0.5-0.4,1-0.9,1.4-1.4
			c0.4-0.4,0.3-0.9-0.2-1.2c-0.6-0.3-1.2-0.6-1.8-0.9c-1.1-0.4-2.3-0.8-3.4-1.2c-0.5-0.2-0.7-0.4-0.5-0.9c0.1-0.2,0.2-0.5,0.2-0.7
			c0-0.7,0.3-0.8,0.9-0.6c2,0.8,4.1,1.5,6.1,2.3c1.3,0.5,1.3,0.5,2.1-0.5c2.3-2.9,4.1-6.2,5.3-9.7c0.9-2.8,1.7-5.6,1.7-8.5
			C656.4,82.2,656.3,82.1,655.1,82.1z M637.1,102.5c-1.5,0-2.6-1.4-2.6-2.9c0-1.2,1.5-2.6,2.8-2.5c1.4,0.1,2.7,1.4,2.6,2.8
			C639.8,101.3,638.4,102.6,637.1,102.5z"/>
		<path class="st1" d="M619.7,82.1c-1.9,0-3.9,0-5.8,0c-1.9,0-3.9,0-5.8,0c-1.7,0-1.8,0.1-1.8,1.7c0,0.7,0.1,1.5,0,2.2
			c0,0.3-0.1,0.7-0.3,0.8c-1,0.5-2-0.1-2.1-1.2c0-0.5,0-1.1-0.1-1.6c0-1.6-0.2-1.8-1.8-1.8c-3.7,0-7.4,0-11.1,0
			c-2.4,0-2.4,0-2.1,2.4c0.6,6.4,3,12.1,6.9,17.2c0.9,1.1,0.9,1.1,2.3,0.6c2.3-0.9,4.5-1.7,6.8-2.5c1.4-0.5,1.5-0.6,1.2-2.1
			c-0.1-0.4-0.2-0.7-0.3-1.1c-0.2-1.1-0.2-1.1,0.9-1.3c1.1-0.2,1.1-0.2,1.3,0.8c0.1,0.5,0.2,0.9,0.4,1.4c0.3,1,0.6,1.2,1.6,1
			c3.3-0.6,6.6-1.1,9.9-1.1c1.4,0,1.6-0.2,1.6-1.6c0-4,0-8,0-12C621.3,82.2,621.2,82.1,619.7,82.1z M605.6,94.9
			c-2.1,0-3.9-1.7-3.9-3.8c0-2,1.8-3.9,3.8-3.9c2.1,0,3.8,1.8,3.8,3.9C609.2,93.1,607.5,94.9,605.6,94.9z"/>
		<path class="st1" d="M656.4,77.7c-0.4-5.1-2-9.8-4.6-14.2c-0.8-1.3-1.7-2.5-2.6-3.8c-0.4-0.6-0.9-0.7-1.6-0.4
			c-2.5,1-5,1.9-7.5,2.8c-0.8,0.3-1.3,0.6-1,1.6c0.2,0.5-0.1,0.8-0.7,0.8c-0.7,0-1.5,0.3-1.8-0.7c-0.2-0.6-0.7-0.6-1.4-0.5
			c-3.4,0.5-6.8,0.8-10.3,1.2c-1.2,0.1-1.2,0.1-1.2,1.3c0,2.1,0,4.1,0,6.2c0,2.1,0,4.1,0,6.2c0,1.4,0.1,1.5,1.4,1.5
			c2.2,0,4.4,0,6.6,0c1.9,0,3.9,0,5.8,0c0.8,0,1.3-0.3,1.2-1.1c-0.1-1.1,0.6-1.1,1.3-1.2c0.7-0.1,1.1-0.3,1.1,0.7
			c0.1,1.6,0.2,1.6,1.7,1.6c3.9,0,7.8,0,11.7,0c0.3,0,0.7,0.1,0.9,0c0.3-0.2,0.7-0.5,0.8-0.8C656.5,78.5,656.4,78.1,656.4,77.7z
			 M638.9,76.9c-3.1,0.1-6-3-5.8-6.1c0.2-3.5,3-5.9,6-5.9c3.2,0,5.9,2.7,5.8,6C644.9,74.5,642.3,76.8,638.9,76.9z"/>
		<path class="st1" d="M605.9,64c-1.1,3.9-1.5,7.9-2,11.8c-0.1,0.8,0,1.7-0.1,2.6c-0.1,1-0.3,1.3-1.3,1.3c-2.1,0-4.3,0-6.4,0
			c-2,0-4,0-6,0c-1.4,0-1.5-0.2-1.4-1.6c0.4-6.4,2.7-12,6.4-17.2c1.4-1.9,1.3-1.8,3.5-1c2.1,0.8,4.2,1.5,6.3,2.3
			C606,62.5,606.2,62.8,605.9,64z"/>
		<path class="st1" d="M621.3,78.3c0,1.2-0.1,1.4-1.4,1.4c-4.1,0-8.3,0-12.4,0c-1.2,0-1.3-0.2-1.3-1.4c-0.1-3.2,0.4-6.4,1-9.6
			c0.3-1.4,0.6-2.7,0.9-4.1c0.3-1.3,0.6-1.4,1.9-1.2c2.6,0.3,5.2,0.6,7.8,0.9c0.7,0.1,1.3,0.2,2,0.3c1.5,0.2,1.5,0.2,1.6,1.8
			c0,1.9,0,3.9,0,5.8C621.3,74.1,621.4,76.2,621.3,78.3z"/>
		<path class="st1" d="M621.3,54.6c0,2,0,4,0,6c0,1.3-0.2,1.5-1.3,1.5c-3.1,0-6.2-0.3-9.2-1c-1.3-0.3-1.4-0.6-0.9-1.8
			c1.2-3.1,2.8-5.9,5-8.4c1.3-1.4,2.8-2.6,4.5-3.3c1.6-0.7,2-0.4,2,1.2C621.4,50.7,621.3,52.6,621.3,54.6z"/>
		<path class="st1" d="M621.3,107.5c0,2,0,4,0,6c0,1.2-0.3,1.4-1.4,1c-2.2-0.8-4-2.2-5.5-4.1c-1.9-2.4-3.4-5-4.5-7.9
			c-0.5-1.3-0.3-1.6,1-1.8c2.8-0.4,5.6-0.8,8.5-1c1.7-0.2,1.9,0.1,1.9,1.8C621.4,103.5,621.3,105.5,621.3,107.5z"/>
		<path class="st1" d="M634.4,61c-0.8,0.2-1.7,0.4-2.5,0.5c-2.2,0.2-4.5,0.4-6.7,0.6c-1.3,0.1-1.4-0.1-1.4-1.5c0-2,0-4,0-6
			c0-2,0-4,0-6c0-1.4,0.4-1.7,1.7-1.1c1.1,0.5,2.2,1.1,3.1,1.9c3.2,2.7,5.1,6.2,6.7,10C635.7,60.5,635.5,60.7,634.4,61z"/>
		<path class="st1" d="M613.4,48.8c-0.2,0.3-0.3,0.5-0.5,0.7c-2.3,2.9-4.1,6-5.4,9.4c-0.5,1.2-0.7,1.3-1.9,0.9
			c-1.9-0.6-3.8-1.2-5.6-2c-1.5-0.6-1.5-1-0.4-2c3.6-3.4,7.8-5.7,12.4-7.3c0.3-0.1,0.6-0.2,0.9-0.1C613,48.4,613.2,48.7,613.4,48.8z
			"/>
		<path class="st1" d="M645.8,57.6c-2.3,0.9-4.6,1.8-7.1,2.7c-0.4-0.4-0.8-0.8-1-1.2c-1-1.9-1.8-3.8-2.8-5.7
			c-0.6-1.2-1.5-2.2-2.2-3.3c-0.2-0.3-0.5-0.7-0.7-1.1c-0.2-0.5,0.1-0.8,0.6-0.7c1,0.3,2,0.7,2.9,1c3.6,1.5,6.9,3.6,9.8,6.1
			c0.3,0.2,0.6,0.5,0.8,0.8C646.3,56.8,646.3,57.4,645.8,57.6z"/>
		<path class="st1" d="M613.1,113.3c-0.3,0-0.6,0.1-0.8,0c-2.7-0.8-5.2-2-7.6-3.5c-1.9-1.2-3.6-2.7-5.3-4.1
			c-0.9-0.8-0.9-1.2,0.3-1.7c2-0.8,4-1.5,6-2.2c0.2-0.1,0.4-0.1,0.3,0c1-0.1,1.3,0.3,1.6,0.9c1,2.6,2.2,5.1,3.8,7.4
			c0.5,0.7,1.2,1.4,1.7,2.2C613.1,112.6,613.1,113,613.1,113.3z"/>
		<path class="st0" d="M639.8,99.9c-0.1,1.4-1.4,2.7-2.8,2.6c-1.5,0-2.6-1.4-2.6-2.9c0-1.2,1.5-2.6,2.8-2.5
			C638.6,97.2,639.9,98.5,639.8,99.9z"/>
		<path class="st0" d="M609.2,91.1c0,2-1.7,3.7-3.7,3.8c-2.1,0-3.9-1.7-3.9-3.8c0-2,1.8-3.9,3.8-3.9C607.5,87.3,609.3,89,609.2,91.1
			z"/>
		<path class="st0" d="M645,70.9c-0.1,3.6-2.7,5.9-6,6c-3.1,0.1-6-3-5.8-6.1c0.2-3.5,3-5.9,6-5.9C642.4,65,645.1,67.7,645,70.9z"/>
	</g>
	<g>
		<path class="st0" d="M497.5,156.5c-1.5,0-2.9,0-4.3,0c-0.6,0-1-0.2-1.1-0.7c-0.2-2.4-1.2-4.5-1.5-6.9c-0.2-1.7-0.9-3.3-1.3-4.9
			c-0.3-1.5-0.6-2.9-0.9-4.4c-0.1-0.4-0.3-0.7-0.6-1c0,1.5-0.5,2.9-0.9,4.2c-0.3,1.3-0.8,2.6-1,3.9c-0.2,1.4-0.7,2.7-0.9,4
			c-0.2,1.6-0.7,3.2-1.2,4.8c-0.1,0.3-0.2,1-1,0.9c-1.1-0.2-2.2-0.1-3.3,0c-0.7,0-0.9-0.3-1-0.9c-0.3-2-0.9-3.9-1.1-5.9
			c-0.1-0.7-0.3-1.3-0.6-1.9c-0.3-0.6,0.2-1.3-0.3-1.9c-0.4-0.5,0.2-1.4-0.5-2c0-2.2-0.8-4.2-1.2-6.3c-0.3-1.9-0.7-3.9-1.4-5.8
			c-0.2-0.6-0.1-1.2-0.2-1.9c1.4,0,2.9,0,4.4,0c0.6,0,1.2,0.5,1.2,1.1c-0.1,1.8,0.8,3.4,0.8,5.2c0,0.4,0.3,0.9,0.3,1.3
			c0.1,0.4-0.1,0.9,0.3,1.4c0.2,0.3,0,0.9,0.1,1.4c0.1,0.4,0.3,0.9,0.3,1.3c0.3,1.8,0.6,3.6,0.9,5.7c0.3-1.4,0.6-2.5,0.9-3.6
			c0.5-2.3,1.2-4.6,1.7-6.9c0.3-1.3,0.6-2.6,0.9-3.9c0.1-0.5,0.3-1,0.4-1.5c0.2-1.3,0.3-1.4,1.6-1.4c0.9,0,1.7,0,2.6,0
			c0.6,0,0.9,0.3,0.9,0.8c0.7,3.7,1.8,7.3,2.6,11c0.4,1.7,0.6,3.4,1.2,5c0.3-0.6,0.7-1.2,0.6-1.9c-0.1-0.9,0.6-1.8,0.3-2.8
			c0.8-0.6-0.1-1.8,0.7-2.4c-0.1-0.9,0.1-1.7,0.3-2.6c0.4-1.8,0.5-3.8,1.1-5.6c0.1-0.4,0-0.9,0-1.5c1.8,0,3.6,0,5.5,0
			C501.2,138.8,499.3,147.6,497.5,156.5z"/>
		<path class="st0" d="M173.3,129.9c1.5,0,3,0,4.4,0c0.4,0,0.5,0.2,0.7,0.6c1.2,2.7,2.6,5.2,3.8,7.9c0.6,1.4,1.3,2.8,1.9,4.1
			c0.5,1,0.7,2.1,1.1,3.2c0.1,0.3,0.3,0.5,0.5,0.7c1.4-3.4,2.8-6.8,4.5-10c0-1.1,0.8-2,1.2-3c0.3-1,1-1.9,1.3-2.9
			c0.2-0.5,0.3-0.5,0.7-0.5c1.4,0,2.9,0,4.4,0c0,8.9,0,17.7,0,26.6c-1.6,0-3.3,0-5.1,0c0-4.9,0-9.9,0-15.2c-1.3,2.9-2.5,5.5-3.6,8
			c-1.1,2.4-2.2,4.7-3.3,7c-0.1,0.1-0.2,0.3-0.4,0.3c-0.1,0-0.3-0.2-0.3-0.3c-0.6-1.4-1.3-2.7-1.9-4.2c-0.5-1.4-1.5-2.6-1.9-4.2
			c-0.1-0.6-0.6-1.1-0.9-1.6c-0.8-1.7-1.5-3.4-2.3-5.3c0,5.3,0,10.4,0,15.5c-1.8,0-3.4,0-5.1,0C173.3,147.7,173.3,138.9,173.3,129.9
			z"/>
		<path class="st0" d="M426,129.9c1.8,0,3.4,0,5.1,0c0,8.8,0,17.6,0,26.6c-1.3,0-2.7,0-4.1,0c-0.7,0-1-0.5-1.3-0.9
			c-1.5-2.2-2.9-4.4-4.4-6.6s-2.9-4.4-4.4-6.6c-0.7-1-1.4-2.1-2.2-3.4c0,6,0,11.6,0,17.4c-1.7,0-3.4,0-5.1,0c0-8.8,0-17.6,0-26.6
			c0.7,0,1.4,0,2.1,0c1,0,1.9,0.1,2.9,0.1c0.4,0.8,0.9,1.4,1.4,2.2c1.6,2.6,3.4,5.2,5.2,7.7c1.4,2.1,2.8,4.2,4.1,6.3
			c0.1,0.2,0.2,0.4,0.6,0.4C426,141.1,426,135.6,426,129.9z"/>
		<path class="st0" d="M541,146.7c0,3.4,0,6.6,0,9.8c-1.7,0-3.3,0-5,0c0-8.8,0-17.7,0-26.6c4.3,0,8.7-0.1,13,0.1
			c1.6,0.1,3.2,0.4,4.6,1.3c1.8,1.2,3.1,2.6,3.7,4.8c0.6,2.3,0.2,4.4-0.5,6.5c-0.5,1.2-1.4,2.1-2.6,2.7c-0.6,0.3-1.1,0.6-1.7,1
			c1.7,3.4,3.4,6.8,5.2,10.3c-1.9,0-3.8,0-5.6,0c-0.3,0-0.4-0.1-0.6-0.4c-1.4-2.8-2.9-5.6-4.2-8.5c-0.3-0.7-0.7-1-1.4-1
			C544.1,146.7,542.6,146.7,541,146.7z M541,141.9c2.5,0,4.8-0.1,7.1,0c2.7,0.2,4.1-1.3,3.9-3.9c-0.1-0.8-0.1-1.6-0.7-2.1
			c-0.6-0.5-1.4-1-2.1-1c-2.7-0.1-5.4,0-8.2,0C541,137.4,541,139.6,541,141.9z"/>
		<path class="st0" d="M587,156.5c0-8.9,0-17.7,0-26.6c0.4,0,0.9,0,1.3,0c2,0,4,0.1,6,0c1.7-0.1,3.3,0.5,5,0.4c3,1,5.9,2.1,7.4,5.3
			c0.7,1.4,1.1,2.8,1.5,4.3c0.3,1.3,0.2,2.6,0.3,3.9c0.1,2-0.7,3.8-1.2,5.7c-0.2,0.6-0.6,1.1-1,1.6c-1.4,1.7-2.9,3.3-5.1,4.1
			c-1.4,0.5-2.8,0.8-4.3,1.1c-1.7,0.4-3.3,0.2-5,0.3C590.3,156.6,588.7,156.5,587,156.5z M592.1,151.4c1.1,0,2.2,0,3.3,0
			c1.7,0,3.1-0.5,4.5-1.4c2-1.4,3.1-3.2,3.1-5.4c0-1,0-1.9,0-2.9c-0.2-4.2-2.8-6.1-6.1-6.6c-1.5-0.2-3.1,0-4.7,0
			C592.1,140.5,592.1,145.8,592.1,151.4z"/>
		<path class="st0" d="M288.5,143.4c0.1,2.7-0.6,5.2-1.8,7.7c-1.3,2.5-3.3,4.2-5.9,5.1c-1.5,0.5-3.1,1-4.8,0.7
			c-1.5-0.2-3-0.5-4.5-1.1c-1.6-0.7-2.8-2-3.9-3.2c-1-1.1-1.6-2.5-2-3.9c-0.3-0.9-0.1-2-0.4-2.9c-0.4-1-0.4-2-0.3-3
			c0.3-2.4,0.6-4.8,1.6-7c0.7-1.6,1.9-2.7,3.1-3.8c1.1-1,2.5-1.7,3.9-2c1.2-0.2,2.5-0.6,3.8-0.4c1.6,0.2,3.2,0.5,4.6,1.1
			c1,0.4,2,1,2.7,1.8c1.5,1.7,2.8,3.5,3.2,5.8c0.8,0.7,0.2,1.7,0.7,2.5C288.8,141.3,288.5,142.4,288.5,143.4z M283,143.5
			c-0.1-1.2,0.1-2.3-0.3-3.5c-0.6-2-1.4-3.5-3.1-4.5c-1.2-0.7-2.5-1.1-3.8-0.9c-1.4,0.2-2.7,0.9-3.6,1.9c-1.3,1.4-1.8,3.2-2,5
			c-0.1,1.5-0.1,3,0.3,4.6c0.4,1.5,0.9,2.8,2.1,3.9c1.7,1.6,3.6,2.2,5.9,1.4c1.5-0.5,2.8-1.3,3.5-2.9
			C282.7,146.9,283.3,145.4,283,143.5z"/>
		<path class="st0" d="M404.3,143.3c0,2.8-0.7,5.4-2,7.8c-1.3,2.4-3.3,4.2-6,5c-1.5,0.5-3,0.9-4.6,0.7c-1.7-0.2-3.4-0.5-4.9-1.4
			c-1.7-1-2.5-1.8-3.8-3.5c-1.9-2.6-1.7-4-2.2-6c-0.1-0.5-0.3-1-0.3-1.5c-0.1-0.5,0-1,0-1.5c0-1.3,0.4-2.5,0.5-3.8
			c0.1-1.1,0.7-2.3,1.1-3.3c1-2.4,4.4-5.4,7-5.8c1.4-0.3,2.9-0.7,4.4-0.4c1.4,0.3,3,0.4,4.2,1.2c1.2,0.7,2.6,1.3,3.4,2.8
			c0.5,0.9,1.1,1.9,1.7,2.8c0.6,0.9,0.7,1.9,1,2.9C404.1,140.5,404.1,141.9,404.3,143.3z M398.7,143.7c0-1.1,0-1.9,0-2.7
			c0-0.3-0.3-0.6-0.3-0.9c-0.6-2.9-1.7-4.2-4.6-5.1c-1.5-0.5-1.5-0.4-3.2,0c-1.1,0.3-2.1,0.9-2.8,1.6c-1.2,1.3-1.8,3.1-1.9,4.8
			c-0.1,1.5-0.2,3,0.2,4.6c0.4,1.5,0.9,2.8,2,3.9c1.7,1.7,3.7,2.3,6,1.5c1.4-0.5,2.6-1.3,3.3-2.8C398.4,147,399,145.3,398.7,143.7z"
			/>
		<path class="st0" d="M530.2,143.3c0,2.8-0.7,5.4-2,7.8c-1.3,2.4-3.3,4.2-6,5c-1.5,0.5-3,0.9-4.6,0.7c-2.2-0.2-4.3-0.8-6.1-2
			c-1.8-1.2-3.9-4.4-4.4-6.2c-0.2-0.9-0.2-1.8-0.4-2.8c-0.1-0.5-0.3-1-0.3-1.5c-0.1-0.5-0.1-1,0-1.5c0.1-1.3,0.2-2.6,0.4-3.8
			c0.2-1.1,0.7-2.3,1.1-3.4c1-2.4,4.4-5.4,7-5.8c1.4-0.2,2.8-0.7,4.2-0.4c1.5,0.3,3.1,0.4,4.4,1.2c1.2,0.7,2.6,1.3,3.4,2.8
			c0.5,0.9,1.1,1.9,1.7,2.8c0.6,0.9,0.7,1.9,1,2.9C530,140.5,530,141.9,530.2,143.3z M524.6,144c-0.1-1.8-0.1-3-0.4-4.2
			c-0.6-2.3-2.8-4.7-5.1-5.2c-2.5-0.4-5.8,1.5-6.6,3.9c-0.9,2.4-0.9,4.5-0.4,7.4c0.3,1.6,0.9,2.9,2.1,4.1c1.8,1.8,3.8,2.2,6.1,1.3
			c1.4-0.5,2.6-1.4,3.3-2.9C524.3,146.9,524.8,145.3,524.6,144z"/>
		<path class="st0" d="M205.3,156.5c0-8.9,0-17.7,0-26.5c6,0,12,0,18.1,0c0,1.6,0,3.3,0,5c-4.3,0-8.6,0-13,0c0,1.6,0,3.1,0,4.7
			c2.4,0.2,5,0,7.5,0.1c0,1.7,0,3.3,0,5c-2.5,0-5,0-7.6,0c0,2.2,0,4.3,0,6.6c4.6,0,9.2,0,13.8,0c0,1.8,0,3.4,0,5.1
			C218,156.5,211.7,156.5,205.3,156.5z"/>
		<path class="st0" d="M166.1,133.5c-1.2,1.2-2.4,2.4-3.6,3.6c-0.5-0.4-1.2-0.9-1.9-1.4c-1-0.8-2.1-1.2-3.4-1.1c-0.4,0-0.9,0-1.3,0
			c-1.2-0.1-2.2,0.4-2.9,1.3c-0.2,0.2-0.3,0.5-0.3,0.8c-0.1,1.4,0.3,2.2,1.7,2.6c1.8,0.5,3.6,1.1,5.4,1.5c2.2,0.5,4.2,1.4,5.6,3.1
			c0.8,1.1,1.4,2.3,1.5,3.8c0.1,1.8-0.2,3.4-1.1,5c-0.5,0.8-1.1,1.5-1.8,2c-1.4,0.9-2.8,1.8-4.5,1.8c-1,0-1.9,0.4-2.9,0.4
			c-2-0.1-4.1-0.4-5.9-1.2c-1.4-0.6-2.8-1.6-4-2.8c-0.4-0.4-0.4-0.9,0-1.2c1-1,2.1-1.9,3.1-2.9c1,1.1,2.2,1.8,3.5,2.4
			c0.5,0.2,1.1,0.4,1.6,0.5c1.8,0.2,3.6,0.3,5.3-0.6c0.9-0.5,1.2-1.2,1.2-2.1c0-1-0.2-1.8-1.2-2.3c-1.4-0.8-2.9-1.1-4.3-1.4
			c-1.9-0.5-3.7-0.9-5.4-1.8c-2.1-1.2-3.2-3-3.3-5.4c-0.2-3.3,1.5-5.5,4.1-7.2c1,0,1.8-1,2.9-0.9c0.5,0,1.1-0.3,1.7-0.3
			C160,129.5,163.5,130.7,166.1,133.5z"/>
		<path class="st0" d="M243.8,148.8c2.5,2.6,5.4,3.2,8.6,3c0.9-0.6,2.2-0.4,2.7-1.8c0.5-1.4,0.1-2.7-1.2-3.5c-1.3-0.7-2.7-0.9-4-1.3
			c-1.8-0.4-3.5-0.9-5.1-1.7c-2.5-1.2-3.6-3.2-3.6-5.9c-0.1-3.3,1.7-5.4,4.2-7c0.5-0.3,1.3-0.6,1.9-0.7c0.8-0.1,1.6-0.3,2.4-0.4
			c0.8-0.1,1.7-0.2,2.5,0c1.7,0.4,3.4,0.9,4.9,1.7c1.2,0.6,2,1.6,2.9,2.3c-1.2,1.2-2.4,2.4-3.6,3.6c-0.6-0.5-1.3-1-2-1.5
			c-1-0.7-2-1.1-3.2-1c-0.5,0-1,0-1.5,0c-1.1-0.1-1.9,0.4-2.6,1.2c-0.3,0.3-0.5,0.6-0.5,1.1c0,1.3,0.4,2.1,1.7,2.5
			c1.9,0.6,3.9,1,5.8,1.5c1.5,0.4,2.9,1,4.1,1.9c1.4,1,2.1,2.5,2.5,4c0.3,1.1,0.1,2.3,0,3.4c0,0.5-0.3,1.1-0.5,1.6
			c-0.9,2.4-2.8,3.6-5.1,4.3c-1.8,0.6-3.8,1-5.7,0.7c-0.9-0.1-1.7-0.2-2.6-0.4c-0.8-0.2-1.6-0.4-2.2-0.7c-1.4-0.8-2.8-1.6-4-2.8
			c-0.4-0.5-0.4-0.9,0.1-1.4C241.7,150.7,242.7,149.8,243.8,148.8z"/>
		<path class="st0" d="M457.1,133.7c-1.2,1.2-2.3,2.3-3.5,3.5c-0.7-0.5-1.4-1-2.1-1.5c-1-0.7-2.1-1.1-3.4-1.1c-0.5,0-1,0-1.5,0
			c-1.3-0.1-2.1,0.6-2.9,1.5c-0.4,0.4-0.2,1.9,0.1,2.3c0.4,0.5,1,0.7,1.6,0.9c1.8,0.6,3.7,1,5.6,1.5c3.1,0.8,5.7,2.4,6.5,5.9
			c0.3,1.1,0.1,2.4,0,3.5c0,0.5-0.3,1.1-0.5,1.6c-0.8,2.4-2.8,3.4-4.9,4.3c-0.7,0.3-1.6,0.3-2.4,0.4c-0.9,0.2-1.9,0.2-2.8,0.3
			c-0.7,0.1-1.2-0.2-1.9-0.4c-0.6-0.2-1.2,0.2-1.9-0.3c-0.4-0.3-1.3-0.1-1.8-0.5c-1.3-0.9-2.8-1.6-3.9-2.8c-0.4-0.4-0.4-0.8,0-1.2
			c0.9-0.9,1.8-1.9,2.9-2.6c0.3-0.2,0.3-0.1,0.5,0c0.8,0.6,1.6,1.3,2.5,1.8c2,1,5.3,1.3,7.4,0.2c1-0.5,1.3-1.2,1.3-2.2
			c0-1-0.2-1.7-1.2-2.3c-1.4-0.8-2.9-1-4.3-1.4c-1.8-0.5-3.6-0.9-5.3-1.8c-2.3-1.2-3.3-3.1-3.4-5.7c-0.1-3.2,1.6-5.4,4.1-7
			c1,0,1.8-0.9,2.9-0.9c0.7,0,1.3-0.3,2-0.4C450.4,129.5,454.9,130.9,457.1,133.7z"/>
		<path class="st0" d="M316.2,129.9c1.7,0,3.4,0,5.1,0c0,0.6,0,1.2,0,1.8c0,3.5,0.1,6.9,0,10.4c-0.1,1.7,0.3,3.4,0.5,5.1
			c0.2,1.2,0.9,2.5,1.9,3.4c0.6,0.5,2.3,1.1,3.2,1.1c1.3,0,2.4-0.1,3.4-1c0.8-0.7,1.7-1.8,2-2.8c0.3-0.7,0.4-1.5,0.4-2.2
			c0-5.2,0-10.5,0-15.8c1.7,0,3.3,0,5.1,0c0,1.4,0,2.8,0,4.2c0,4-0.1,8,0,12c0.1,1.9-0.4,3.7-1.2,5.4c-0.6,1.4-1.8,2.6-3.2,3.5
			c-1,0.7-2.9,1.3-4.1,1.5c-0.8,0.1-1.6,0.5-2.4,0.4c-1.4-0.2-2.8-0.3-4.1-0.8c-0.8-0.3-1.6-0.7-2.2-1.3c-1.7-1.4-3.2-3.1-3.7-5.4
			c-0.1-0.3-0.3-0.6-0.3-0.9c-0.2-1.1-0.4-2.2-0.4-3.3C316.2,140.2,316.2,135.1,316.2,129.9z"/>
		<path class="st0" d="M363.6,130c0,1.7,0,3.3,0,5c-2.6,0-5.2,0-7.7,0c-0.1,0.1-0.2,0.1-0.2,0.2c0,0-0.1,0.1-0.1,0.2
			c0,7,0,14.1,0,21.2c-1.7,0-3.3,0-5,0c0,0,0,0-0.1-0.1c0,0-0.1-0.1-0.1-0.2c0-7,0-14.1,0-21.2c-2.5,0-5,0-7.6,0
			c-0.2-0.9-0.1-1.7-0.1-2.5c0-0.8,0-1.7,0-2.6C349.8,130,356.7,130,363.6,130z"/>
		<path class="st0" d="M294,156.5c0-8.8,0-17.6,0-26.5c1.6,0,3.3,0,5,0c0,0,0,0,0.1,0c0,0,0.1,0.1,0.1,0.2c0,7,0,14.1,0,21.2
			c4.5,0,9,0,13.5,0c0,1.7,0,3.4,0,5.1C306.4,156.5,300.3,156.5,294,156.5z"/>
		<path class="st0" d="M563.3,129.9c1.7,0,3.3,0,5,0c0,7.1,0,14.2,0,21.4c4.5,0,9,0,13.5,0c0,1.7,0,3.4,0,5.1c-6.1,0-12.3,0-18.5,0
			C563.3,147.7,563.3,138.9,563.3,129.9z"/>
		<path class="st0" d="M369.6,129.9c1.7,0,3.3,0,5,0c0,8.8,0,17.6,0,26.6c-0.8,0-1.6,0-2.4,0c-0.8,0-1.7,0-2.6,0
			C369.6,147.7,369.6,138.9,369.6,129.9z"/>
	</g>
	<g>
		<path class="st0" d="M75.3,157.2c-5.3,0-10.5,0-15.8,0c-0.2-0.8-0.3-66.7-0.1-68.4c0.8-0.3,21.9-0.4,24.9-0.1
			c0.2,0.7,0.5,1.4,0.7,2.1c0.4,1.6,0.8,3.1,1.3,4.7c0.7,2.5,1.5,4.9,2.2,7.4c0.7,2.4,1.2,4.8,1.9,7.2c0.7,2.4,1.4,4.8,2.1,7.2
			c0.7,2.3,1.2,4.7,1.9,7c0.7,2.4,1.4,4.9,2.1,7.3c0.4,1.5,0.8,3.1,1.2,4.6c0.1,0.4,0.4,0.8,0.7,1.5c0-0.6,0.1-1,0.1-1.3
			c0-5.5,0-10.9,0-16.4c0-1.3,0-2.6-0.2-3.9c-0.3-1.8-0.7-3.5-1-5.3c-0.2-1.3-0.5-2.5-0.7-3.8c-0.4-1.7-0.8-3.4-1.3-5
			c-0.4-1.5-0.9-3-1.5-4.4c-0.7-1.7-1.4-3.3-2.2-4.9c-1.8-3.6-4.8-6-8.3-7.9c-1.4-0.7-2.9-1.3-4.5-1.6c-1.2-0.2-2.4-0.4-3.6-0.7
			c-1.7-0.3-3.4-0.7-5.1-1c-1.2-0.2-2.5-0.3-3.7-0.5c-0.9-0.1-1.8-0.3-2.7-0.5c-2.3-0.4-4.6-0.8-6.8-1.3c-1.4-0.3-2.8-0.7-4.1-1.2
			c-1.9-0.7-3.7-1.7-5.3-2.9c-1.1-0.8-1.9-1.9-2.4-3.1c-0.2-0.4-0.4-0.7-0.8-0.8c-1.6-0.5-3-1.4-4-2.8c-0.6-0.9-1.1-1.9-1.1-3.1
			c0-1.3-0.1-2.5,0.4-3.7c0.8-1.7,2.1-3,3.9-3.7c1.2-0.5,2.5-0.5,3.7-0.3c1.7,0.3,3.2,1.1,4.2,2.5c1.6,2.1,1.7,4.5,1,6.8
			c-0.5,1.7-1.8,3-3.5,3.8c-0.4,0.2-0.8,0.4-1.3,0.7c0.5,0.6,0.8,1.1,1.2,1.5c1.6,1.4,3.5,2.3,5.5,2.9c1,0.3,2,0.7,3.1,0.9
			c1.6,0.3,3.2,0.6,4.8,0.9c0.9,0.2,1.8,0.3,2.7,0.5c1.3,0.2,2.7,0.4,4,0.6c0.9,0.2,1.9,0.4,2.8,0.5c0.5,0.1,1.1,0.2,1.6,0.3
			c2.6,0.5,5.2,1,7.8,1.7c4.1,1.2,7.4,3.5,10.2,6.6c1.3,1.4,2.2,3,3,4.6c0.9,1.9,1.6,3.8,2.3,5.7c0.6,1.5,1.1,3,1.6,4.5
			c0.1,0,0.2,0,0.2,0c0-0.4,0-0.8,0-1.2c0-2.5,0-4.9,0-7.4c0-1.3,0-2.6-0.2-3.9c-0.2-1.3-0.7-2.6-1.2-3.9c-0.6-1.6-1.5-3.2-2.6-4.6
			c-1.2-1.6-2.5-3-4.1-4.1c-1.3-0.9-2.7-1.7-4.1-2.5c-1.5-0.8-3-1.3-4.6-1.7c-1.4-0.3-2.7-0.6-4.1-0.9c-0.3-0.1-0.5-0.1-0.8-0.1
			c-1.7-0.2-3.4-0.2-5.1-0.5c-2.4-0.4-4.9-1-6.9-2.5c-1.6-1.2-2.9-2.8-3.1-5c0-0.5-0.2-0.9-0.3-1.2c-1.1-0.6-2.1-1.1-3-1.8
			c-1.1-0.9-1.9-2-2.1-3.5c0-0.3-0.2-0.6-0.2-0.8c-0.1-0.2-0.2-0.4-0.1-0.6c0.2-1.3,0.3-2.7,1.1-3.9c0.7-1.2,1.7-2.1,3-2.7
			c1.4-0.7,2.8-0.7,4.3-0.5c2.5,0.4,4.3,2,5.1,4.2c1.2,3,0.4,6.2-2.5,8.4c-0.6,0.4-1.3,0.7-2,0.9c-0.7,0.2-1,0.6-0.8,1.3
			c0.3,0.8,0.6,1.6,1.3,2.3c1.4,1.3,3,2.1,4.8,2.5c1.8,0.5,3.6,0.5,5.4,0.7c1.6,0.1,3.3,0.5,4.9,0.9c1.4,0.3,2.8,0.8,4.2,1.2
			c2.5,0.8,4.7,2.1,6.8,3.6c2.5,1.8,4.4,4,6.1,6.5c0.2,0.3,0.4,0.5,0.8,0.6c0-0.4,0-0.7,0-1.1c0-1.2-0.1-2.4,0-3.6
			c0.3-3.7-1.7-6.1-4.4-8.3c-1.8-1.5-3.8-2.6-5.9-3.7c-1.6-0.8-3.4-1.5-5-2.3c-1.6-0.7-2.7-2-3.4-3.6c-0.5-1.2-0.6-2.5-0.5-3.8
			c0-1.1,0-1.1-1-1.4c-2.4-0.8-4.2-3.7-4.2-6c0-1.9,0.4-3.5,1.6-4.9c1.5-1.8,3.5-2.6,5.8-2.4c2.8,0.2,5.2,2,6,4.6
			c1,3.4,0,6.5-3.1,8.4c-0.4,0.2-0.9,0.3-1.4,0.4c-0.9,0.3-1.1,0.5-1.1,1.5c0,1.2,0,2.4,0.8,3.5c0.5,0.7,1.1,1.2,1.9,1.5
			c3.1,1.2,6,2.7,8.8,4.3c1.5,0.9,2.8,2.2,4.2,3.4c0.2,0.2,0.4,0.3,0.7,0.5c0.1-0.4,0.1-0.7,0.1-1c0-8,0-16,0-24
			c0-1.2-0.1-1.1-1.3-1.5c-2.1-0.6-3.9-1.7-5.2-3.6c-0.5-0.7-0.8-1.4-1.1-2.1c-1-2.5-1-5,0.1-7.5c1-2.1,2.5-3.8,4.7-4.8
			c2.2-1,4.4-1,6.6-0.5c2.5,0.5,4.3,2.1,5.7,4.3c1.1,1.9,1.7,3.9,1.3,6.1c-0.6,3.6-2.4,6.3-5.9,7.7c-0.5,0.2-1,0.4-1.6,0.5
			c-0.5,0.1-0.8,0.4-0.8,0.9c0,0.3,0,0.6,0,0.9c0,7.6,0,15.2,0,22.9c0,0.5,0.1,1.1,0.1,1.8c0.4-0.3,0.6-0.4,0.8-0.6
			c1.9-2,4.1-3.4,6.5-4.7c2.1-1.1,4.3-2.2,6.5-3c1.6-0.6,2.8-2.3,2.8-4.1c0-0.1,0-0.2,0-0.3c0-1.7,0-1.7-1.6-2.3
			c-1.7-0.7-2.8-2-3.5-3.6c-1.5-3.5,0.2-7.6,3.6-9.1c3.6-1.5,7.7,0,9.1,3.6c1.5,3.6,0.1,7-3.2,9c-0.3,0.2-0.7,0.3-1.1,0.3
			c-0.7,0.1-0.9,0.5-0.8,1.1c0.1,1.1,0,2.2-0.4,3.3c-0.6,2-1.8,3.5-3.7,4.4c-2.7,1.2-5.3,2.5-7.9,3.9c-1.7,0.9-3.2,2.1-4.6,3.5
			c-1.1,1.1-1.9,2.4-2.4,3.8c-0.3,0.8-0.3,1.6-0.4,2.4c-0.1,1.4,0,2.8,0,4.2c0,0.4,0.1,0.8,0.2,1.4c0.6-0.9,1.1-1.6,1.6-2.3
			c2.2-3,4.9-5.3,8.2-7.1c2.1-1.1,4.2-1.9,6.4-2.6c1.5-0.4,3.1-0.5,4.6-0.8c2.1-0.5,4.3-0.3,6.4-0.7c1.6-0.3,3.1-0.9,4.5-1.8
			c1.3-0.8,2.2-2.1,2.6-3.6c0.2-0.6,0-0.9-0.7-1.2c-1.9-0.8-3.2-2.1-4-4c-0.4-1-0.3-2.1-0.3-3.2c-0.1-1.2,0.4-2.3,1.1-3.3
			c1.7-2.4,4.1-3.4,6.9-2.9c2.7,0.4,4.7,2,5.3,4.7c0.9,3.8-0.1,6.5-3.5,8.4c-0.4,0.2-0.8,0.2-1.3,0.3c-0.7,0.2-1,0.5-1,1.1
			c-0.2,3-2,4.9-4.4,6.2c-2.1,1.1-4.4,1.5-6.8,1.9c-2.3,0.4-4.6,0.3-6.9,0.9c-2.6,0.7-5.2,1.4-7.6,2.7c-2,1-3.7,2.4-5.3,4
			c-1.4,1.5-2.7,3-3.6,4.9c-0.7,1.4-1.3,2.8-1.7,4.3c-0.6,2.5-0.8,5-0.7,7.6c0,1.9,0.1,3.7,0.1,5.6c0,0.2,0.1,0.4,0.1,0.8
			c0.2-0.6,0.4-0.9,0.5-1.2c0.8-2.4,1.5-4.8,2.4-7.1c1.7-4,3.9-7.5,7.5-10.1c1.9-1.4,4-2.6,6.2-3.4c1-0.4,2.1-0.6,3.2-0.8
			c1.5-0.3,3.1-0.7,4.6-1c1.2-0.2,2.3-0.4,3.5-0.5c0.8-0.1,1.5-0.2,2.3-0.3c1.1-0.2,2.2-0.5,3.3-0.7c0.7-0.1,1.4-0.2,2.1-0.3
			c1.4-0.2,2.8-0.4,4.1-0.7c3-0.7,5.9-1.6,8.5-3.2c0.9-0.5,1.5-1.4,2.2-2.1c0.4-0.4,0.2-0.8-0.1-1.1c-0.3-0.2-0.6-0.4-0.9-0.7
			c-1.3-1.3-2.1-2.8-2.2-4.7c-0.1-1.8,0.3-3.4,1.4-4.8c0.7-1,1.6-1.6,2.7-2.1c1.3-0.6,2.7-0.7,4.1-0.5c1.6,0.3,3,1.1,4.1,2.4
			c1.6,2.1,1.8,4.4,1.1,6.8c-0.5,1.8-1.8,3-3.4,3.9c-0.9,0.4-1.8,0.7-2.8,0.6c-0.7-0.1-1.1,0.2-1.4,0.8c-0.6,1.4-1.7,2.3-2.9,3.2
			c-1.9,1.3-4,2.2-6.2,2.9c-2.5,0.8-5,1.2-7.5,1.7c-1.7,0.4-3.4,0.5-5.1,0.8c-1.2,0.2-2.4,0.5-3.6,0.7c-1.6,0.3-3.3,0.4-4.9,0.8
			c-1.4,0.3-2.8,0.7-4.3,1c-1.2,0.3-2.3,0.7-3.4,1.3c-1,0.6-2,1.1-2.9,1.8c-1.2,0.9-2.3,1.9-3.3,3c-1.5,1.7-2.6,3.5-3.4,5.6
			c-0.5,1.3-1.1,2.6-1.6,4c-0.7,1.9-1.4,3.9-1.7,5.9c-0.3,1.4-0.7,2.7-1,4.1c-0.3,1.6-0.5,3.3-0.8,4.9c-0.2,1.6-0.5,3.1-0.7,4.7
			c-0.1,0.4-0.1,0.9-0.1,1.3c0,5.1,0,10.2,0,15.3c0,0.8,0.1,1.5,0.4,2.3c0.1-0.4,0.3-0.8,0.4-1.2c0.4-1.6,0.8-3.3,1.3-4.9
			c0.6-2.3,1.4-4.6,2-6.9c0.3-1.2,0.5-2.4,0.9-3.5c0.4-1.6,0.9-3.1,1.4-4.6c0.3-1,0.5-2.1,0.8-3.1c0.3-1,0.6-2,0.9-3
			c0.3-1.2,0.6-2.5,1-3.7c0.3-1,0.6-2,0.9-2.9c0.5-1.7,0.9-3.4,1.4-5.1c0.6-2.2,1.2-4.3,1.8-6.5c0.2-0.9,0.5-1.8,0.8-2.6
			c0.1-0.5,0.4-0.8,1-0.7c0.2,0,0.4,0,0.7,0c7.3,0,14.6,0,22,0c0.4,0,0.8,0,1.2,0c0.3,0.9,0.4,66.4,0.1,68.5
			c-0.7,0.3-13.7,0.4-15.7,0.1c0-0.4-0.1-0.8-0.1-1.3c0-4,0-8,0-12c0-14,0-27.9,0-41.9c0-0.6,0.1-1.3-0.4-2
			c-0.2,0.8-0.3,1.3-0.5,1.9c-0.5,1.7-1,3.5-1.4,5.2c-0.3,1-0.5,2.1-0.8,3.1c-0.5,1.6-0.9,3.2-1.4,4.9c-0.1,0.4-0.1,0.8-0.2,1.2
			c-0.7,2.7-1.5,5.3-2.2,8c-0.5,1.7-0.9,3.4-1.3,5.1c-0.6,2.3-1.2,4.5-1.8,6.8c-0.6,2.3-1.3,4.5-2,6.8c-0.3,1.2-0.6,2.5-0.9,3.8
			c-0.2,1-0.6,1.9-0.8,2.9c-0.5,1.7-0.9,3.5-1.4,5.2c-0.1,0.6-0.3,1.1-0.5,1.7c-0.2,0.7-0.4,0.9-1.2,0.9c-5.1,0-10.1,0-15.2,0
			c-0.3,0-0.5-0.1-0.7-0.1c-0.7-2.3-1.3-4.6-1.9-6.9c-0.5-1.8-0.9-3.7-1.4-5.5c-0.5-1.7-1-3.3-1.4-5c-0.4-1.6-0.8-3.3-1.2-4.9
			c-0.7-2.4-1.4-4.9-2.1-7.3c-0.3-1-0.5-2-0.8-3c-0.3-1.3-0.7-2.6-1.1-3.9c-0.3-1-0.5-1.9-0.7-2.9c-0.5-1.7-1-3.5-1.5-5.2
			c-0.3-1-0.5-2-0.8-3c-0.3-1.3-0.7-2.5-1.1-3.8c-0.3-1-0.5-2-0.8-3c-0.2-0.7-0.3-1.3-0.5-2c-0.1-0.2-0.3-0.4-0.7-0.7
			c-0.1,0.6-0.1,0.9-0.1,1.3c0,1.5-0.2,3.1,0,4.6c0.7,5.6,0.2,11.1,0.3,16.7c0.1,5.6,0,11.1,0,16.7c0,5.6,0,11.1,0,16.7
			C75.3,156.4,75.3,156.8,75.3,157.2z M99.6,40.7c3.4,0.3,6.9-3.1,6.9-6.9c0-4.1-3.3-7.2-7-7.1c-3.7,0.1-7,2.7-7,7.1
			C92.5,37.7,95.9,40.9,99.6,40.7z M150.9,64.3c-0.1,2.6,2.3,4.5,4.3,4.5c2.4,0,4.4-1.8,4.5-4.4c0.1-2.3-2-4.5-4.3-4.5
			c-1.2,0-2.4,0.5-3.2,1.5C151.3,62.2,150.8,63.2,150.9,64.3z M45.8,68.8c2.3-0.1,4.3-1.9,4.4-4.4c0-2.3-2.1-4.6-4.3-4.4
			c-1.1,0.1-2.2,0.4-3.1,1.3c-0.8,0.9-1.4,1.9-1.4,3.1C41.4,66.6,43.4,68.8,45.8,68.8z M118.8,43.8c-2.6,0-4.4,2.1-4.4,4.3
			c0,2.2,1.6,4.4,4.4,4.4c2.5,0,4.3-2.1,4.4-4.4C123.2,45.8,121,43.6,118.8,43.8z M137,51.8c-2.4-0.1-4.4,2.1-4.4,4.4
			c0,2.1,2.4,4.5,4.5,4.4c1.2-0.1,2-0.6,2.9-1.2c1-0.8,1.5-2.1,1.5-3.2C141.4,54,139.6,51.7,137,51.8z M80.9,52.5
			c2.4,0.1,4.4-2.3,4.5-4.3c0-2.1-1.9-4.3-4.4-4.4c-2.4-0.1-4.5,2.3-4.5,4.5C76.4,50.4,78.9,52.7,80.9,52.5z M67.1,56.1
			c0-2.5-1.8-4.2-4.3-4.3c-2.1-0.1-4.4,2.1-4.3,4.4c0.1,2.5,2.5,4.4,4.4,4.3C65.2,60.5,67.1,58.5,67.1,56.1z"/>
	</g>
</g>
</svg>
